# xmcd CD database file
#
# Track frame offsets:
#	150
#	20070
#	35810
#	55165
#
# Disc length: 998 seconds
#
# Revision: 0
# Processed by: cddbd v1.5.1PL0 Copyright (c) Steve Scherf et al.
# Submitted via: CDex 1.51
#
DISCID=3203e404
DTITLE=NEWS - チェリッシュ　-初回生産限定版-
DYEAR=2005
DGENRE=JPop
TTITLE0=チェリッシュ
TTITLE1=Party Time
TTITLE2=SHOCK ME
TTITLE3=チェリッシュ (Instrumental)
EXTD=YEAR: 2005
EXTT0=
EXTT1=
EXTT2=
EXTT3=
PLAYORDER=
